<?xml version="1.0" encoding="UTF-8"?>
<svg version="1.1" xmlns="http://www.w3.org/2000/svg" width="1024" height="1024">
<path d="M0 0 C0.74157349 0.26674026 1.48314697 0.53348053 2.24719238 0.80830383 C9.18668579 3.32131552 16.07230725 5.96932439 22.94165039 8.66729736 C25.19508331 9.55220739 27.44991173 10.43348235 29.70507812 11.31396484 C32.18494086 12.28218691 34.6647335 13.25058384 37.14416504 14.21990967 C47.61621415 18.31368164 58.09875427 22.38039593 68.58203125 26.4453125 C70.1239212 27.04323105 70.1239212 27.04323105 71.69696045 27.65322876 C108.21269567 41.81063384 144.77856514 55.83635504 181.37109375 69.79394531 C195.78927246 75.29427381 210.19797879 80.81852245 224.59790039 86.36645508 C234.85284881 90.31689608 245.11698378 94.24154847 255.39453125 98.1328125 C257.12932739 98.79095947 257.12932739 98.79095947 258.89916992 99.46240234 C264.64646098 101.6426777 270.39697288 103.81379712 276.15234375 105.97265625 C312.83754206 119.80173943 312.83754206 119.80173943 320.20703125 134.1328125 C324.88831142 145.44245396 324.50840454 159.58517401 325.14453125 171.6953125 C325.20565094 172.82811142 325.20565094 172.82811142 325.26800537 173.98379517 C325.56008153 179.4283635 325.82751045 184.87386954 326.08203125 190.3203125 C326.14277832 191.60502441 326.20352539 192.88973633 326.26611328 194.21337891 C329.92128386 276.6456586 327.50208183 360.43607099 309.08203125 445.3203125 C308.81696777 446.53203125 308.5519043 447.74375 308.27880859 448.9921875 C301.8282442 477.85189128 292.33834425 506.40352939 280.08203125 533.3203125 C279.5912207 534.40070801 279.10041016 535.48110352 278.59472656 536.59423828 C253.5152248 591.27692763 216.45039169 637.95862763 174.20703125 680.3203125 C173.66687378 680.8631488 173.12671631 681.40598511 172.57019043 681.965271 C166.58658118 687.97138869 160.53050132 693.80959792 154.08203125 699.3203125 C152.30632904 700.93999067 150.53494818 702.56442968 148.76953125 704.1953125 C144.30680293 708.26571306 139.71945125 712.12208159 135.01953125 715.9140625 C131.71848931 718.6181075 128.4945751 721.40164111 125.26953125 724.1953125 C118.94384823 729.65553061 112.43647987 734.84408375 105.83203125 739.96142578 C102.90488088 742.23437764 99.99443145 744.52851446 97.08203125 746.8203125 C95.91801386 747.73443245 94.75395134 748.64849492 93.58984375 749.5625 C91.22760039 751.41826572 88.86858911 753.27804094 86.51171875 755.140625 C73.7497072 765.21755553 60.67156551 774.85104937 47.57421875 784.48535156 C45.13751237 786.27946257 42.70311351 788.07665428 40.26953125 789.875 C-7.39737771 825.09112267 -7.39737771 825.09112267 -25.91796875 823.3203125 C-40.83485867 820.40313985 -54.1707572 807.76120433 -66.06640625 798.9140625 C-70.79664149 795.3991953 -75.57050954 791.94763499 -80.35546875 788.5078125 C-87.27172946 783.52551046 -94.13037713 778.4769891 -100.91796875 773.3203125 C-101.68512207 772.73878418 -102.45227539 772.15725586 -103.24267578 771.55810547 C-113.65550785 763.66244527 -124.03138498 755.72716252 -134.27636719 747.61474609 C-135.98718937 746.26573075 -137.7054819 744.92674856 -139.42578125 743.58984375 C-146.36267853 738.19098726 -153.1456544 732.65188113 -159.828125 726.94140625 C-162.69374569 724.49727916 -165.61202397 722.12335516 -168.54296875 719.7578125 C-173.24296438 715.9365117 -177.70289685 711.90082099 -182.15625 707.796875 C-184.90449789 705.33239245 -187.72717743 703.00588567 -190.60546875 700.6953125 C-194.80490747 697.31410253 -198.63833739 693.75052914 -202.359375 689.8515625 C-203.85810266 688.22198709 -203.85810266 688.22198709 -205.91796875 687.3203125 C-205.91796875 686.6603125 -205.91796875 686.0003125 -205.91796875 685.3203125 C-206.48475342 685.07877441 -207.05153809 684.83723633 -207.63549805 684.58837891 C-210.37125492 683.06848146 -212.23013215 681.2503604 -214.4375 679.03125 C-215.29537109 678.17144531 -216.15324219 677.31164062 -217.03710938 676.42578125 C-217.92591797 675.52472656 -218.81472656 674.62367188 -219.73046875 673.6953125 C-220.60767578 672.81746094 -221.48488281 671.93960938 -222.38867188 671.03515625 C-226.88858507 666.50495194 -231.25256994 661.91067298 -235.41381836 657.06738281 C-237.48443505 654.66236203 -239.63964933 652.33876264 -241.79296875 650.0078125 C-246.71015428 644.60333831 -251.37521954 639.04105975 -255.91796875 633.3203125 C-256.42312012 632.68770508 -256.92827148 632.05509766 -257.44873047 631.40332031 C-291.18412781 589.04720843 -318.04929534 541.88295038 -334.91796875 490.3203125 C-335.22943848 489.38123047 -335.5409082 488.44214844 -335.86181641 487.47460938 C-361.05980647 410.9408832 -367.24090371 328.56353608 -365.95117188 248.4342041 C-365.91676396 246.24360929 -365.88779617 244.05298481 -365.859375 241.86230469 C-365.50533755 216.06462717 -364.16803008 190.33398801 -362.63671875 164.58203125 C-362.57942093 163.60649292 -362.52212311 162.63095459 -362.46308899 161.62585449 C-360.85226984 135.16825353 -360.85226984 135.16825353 -351.0546875 124.13671875 C-345.41708631 119.34424242 -339.0903828 116.32602516 -332.23046875 113.6953125 C-331.36784424 113.35741699 -330.50521973 113.01952148 -329.61645508 112.67138672 C-320.61847777 109.16371402 -311.58052334 105.7577414 -302.5464325 102.34443665 C-291.74238382 98.26156123 -280.95383095 94.13846363 -270.16796875 90.0078125 C-268.69139801 89.44235718 -268.69139801 89.44235718 -267.18499756 88.86547852 C-247.92901837 81.48914767 -228.69138194 74.06548253 -209.45605469 66.63549805 C-193.61518249 60.51697628 -177.76893253 54.41263973 -161.91796875 48.3203125 C-144.79501759 41.73849433 -127.67651823 35.14525587 -110.56289673 28.53921509 C-106.9514518 27.145732 -103.33943789 25.75373307 -99.72729492 24.36206055 C-89.52819605 20.43070131 -79.33233392 16.49262352 -69.16116333 12.48945618 C-65.12780889 10.90230185 -61.09167437 9.32228533 -57.05541992 7.74252319 C-55.20685404 7.01636079 -53.35978008 6.28638602 -51.5144043 5.55215454 C-34.03122243 -1.40371472 -18.53938535 -6.77988027 0 0 Z M-27.72265625 65.08984375 C-28.49747345 65.39731537 -29.27229065 65.70478699 -30.07058716 66.02157593 C-31.75909216 66.69322814 -33.44528107 67.37072526 -35.12939453 68.05331421 C-38.77622958 69.53131027 -42.4339061 70.98154052 -46.09112549 72.43360901 C-48.03240952 73.20466814 -49.9731133 73.9771896 -51.91326904 74.75108337 C-61.87758141 78.72102386 -71.89473476 82.54868119 -81.91854858 86.36532593 C-99.43840988 93.0386845 -116.91047421 99.82206981 -134.34204102 106.72215271 C-144.066724 110.56932614 -153.80462976 114.38286744 -163.54296875 118.1953125 C-164.52114563 118.57826477 -165.49932251 118.96121704 -166.50714111 119.35577393 C-184.06279505 126.22578684 -201.65110955 133.00852034 -219.25296021 139.7591095 C-224.14910289 141.63801633 -229.04116602 143.52713788 -233.9296875 145.42578125 C-234.56724472 145.67335175 -235.20480194 145.92092224 -235.86167908 146.17599487 C-238.98108263 147.38748861 -242.10032239 148.59940281 -245.21948242 149.81152344 C-252.45132576 152.61412957 -259.69738041 155.37566423 -266.95703125 158.10546875 C-267.80733917 158.42554398 -268.65764709 158.7456192 -269.53372192 159.07539368 C-273.71277606 160.64800123 -277.89336432 162.21629859 -282.07666016 163.77758789 C-283.59152132 164.34638386 -285.10633494 164.91530649 -286.62109375 165.484375 C-287.31643219 165.74215225 -288.01177063 165.9999295 -288.72817993 166.26551819 C-291.73484932 167.39884046 -294.22873777 168.52749185 -296.91796875 170.3203125 C-297.99644385 175.42042485 -298.19331051 180.63384377 -298.453125 185.83203125 C-298.51786263 187.10460785 -298.51786263 187.10460785 -298.58390808 188.40289307 C-299.77912924 212.86207984 -300.13788166 237.29901085 -300.16428757 261.78281021 C-300.16790706 264.21633711 -300.17519302 266.64982811 -300.18338013 269.08334351 C-300.44676681 358.19784951 -288.27453743 451.1246968 -205.91796875 591.3203125 C-205.06058209 592.35105056 -204.2038437 593.3823281 -203.34765625 594.4140625 C-193.96162341 605.67899309 -184.01290606 616.3058626 -173.66796875 626.6953125 C-172.92345459 627.44449951 -172.17894043 628.19368652 -171.41186523 628.96557617 C-167.35878489 633.00694632 -163.21437552 636.8696658 -158.87841797 640.60498047 C-155.52820597 643.53631167 -152.33002362 646.62735502 -149.10546875 649.6953125 C-143.85227409 654.65199001 -138.54423824 659.43920179 -132.89453125 663.9453125 C-129.00970079 667.04501974 -125.1859119 670.21632945 -121.35546875 673.3828125 C-111.68277562 681.35469653 -101.90309227 689.1597949 -91.94384766 696.77148438 C-90.49228992 697.88123158 -89.04153561 698.99202999 -87.59130859 700.10351562 C-75.91660154 709.05010462 -64.16613154 717.88042939 -52.30029297 726.57177734 C-48.97268327 729.01411601 -45.6550424 731.46985224 -42.33691406 733.92504883 C-39.20673496 736.23695896 -36.06734498 738.53619374 -32.92822266 740.8359375 C-31.16554633 742.13750078 -29.41965277 743.45741653 -27.6796875 744.7890625 C-26.37451172 745.76359375 -26.37451172 745.76359375 -25.04296875 746.7578125 C-24.34429687 747.29277344 -23.645625 747.82773437 -22.92578125 748.37890625 C-20.10080394 749.70345787 -18.8432522 749.36974154 -15.91796875 748.3203125 C-12.97471035 746.37305776 -12.97471035 746.37305776 -9.98046875 743.8828125 C-8.81936704 742.96014837 -7.65655183 742.03963715 -6.4921875 741.12109375 C-5.89841309 740.6513916 -5.30463867 740.18168945 -4.69287109 739.69775391 C-1.95205685 737.57070109 0.87155237 735.56845769 3.70703125 733.5703125 C12.59221631 727.28088427 21.33987206 720.80649001 30.08203125 714.3203125 C31.13076416 713.54252441 31.13076416 713.54252441 32.20068359 712.74902344 C41.39443909 705.91988495 50.47344767 698.95188986 59.49609375 691.8984375 C62.56433299 689.49994207 65.64265853 687.11543097 68.73046875 684.7421875 C76.98739042 678.38527379 85.05839159 671.89307474 92.91796875 665.05078125 C95.77196306 662.57013424 98.69529831 660.18734816 101.64453125 657.8203125 C106.3816668 653.97750342 110.86987356 649.91514291 115.31665039 645.74414062 C118.02663701 643.20355525 120.76788078 640.73097685 123.59765625 638.32421875 C129.42069358 633.2538189 134.81628058 627.73495153 140.26391602 622.26879883 C142.140326 620.38702976 144.02202094 618.51066512 145.90429688 616.63476562 C151.84275034 610.69985199 157.67662998 604.75214015 163.08203125 598.3203125 C163.95085937 597.33289063 164.8196875 596.34546875 165.71484375 595.328125 C190.59800735 566.54477901 211.20492234 532.73086627 225.08203125 497.3203125 C225.37674316 496.5684668 225.67145508 495.81662109 225.97509766 495.04199219 C228.12132882 489.50603102 230.1318274 483.92807246 232.08203125 478.3203125 C232.39640137 477.42199707 232.71077148 476.52368164 233.03466797 475.59814453 C263.1795981 388.43443167 264.8282126 292.29376683 261.14453125 197.7578125 C261.07931778 196.10851746 261.07931778 196.10851746 261.01278687 194.42590332 C260.88718898 191.32659521 260.75434877 188.22772239 260.6171875 185.12890625 C260.57858612 184.21896408 260.53998474 183.30902191 260.50021362 182.37150574 C260.28546907 175.7713115 260.28546907 175.7713115 259.08203125 169.3203125 C257.43184589 167.9393571 257.43184589 167.9393571 255.17578125 167.328125 C254.30800049 167.02406738 253.44021973 166.72000977 252.54614258 166.40673828 C251.56798584 166.08946777 250.5898291 165.77219727 249.58203125 165.4453125 C247.38648224 164.6788725 245.19259611 163.90765961 243 163.1328125 C241.13674072 162.48119141 241.13674072 162.48119141 239.23583984 161.81640625 C231.94553079 159.22300348 224.76487679 156.3328796 217.56640625 153.49710083 C213.08106343 151.73143768 208.59152284 149.97653819 204.1015625 148.22265625 C203.22778961 147.88129135 202.35401672 147.53992645 201.45376587 147.18821716 C194.34685786 144.41557092 187.22088079 141.69726112 180.08203125 139.0078125 C160.84374864 131.7539196 141.69417507 124.26928711 122.52929688 116.82421875 C113.22785658 113.21123366 103.92386874 109.60482102 94.61999512 105.99810791 C91.57893357 104.81911155 88.53798324 103.63982883 85.49707031 102.46044922 C76.16042757 98.83943756 66.82335215 95.21955579 57.48455811 91.60409546 C53.22899988 89.9565259 48.97365854 88.30839676 44.71838379 86.66009521 C42.64089639 85.85543574 40.56334192 85.05094941 38.48571777 84.24664307 C28.26031529 80.28742831 18.04001998 76.31706415 7.84765625 72.2734375 C7.06567871 71.96352875 6.28370117 71.65362 5.47802734 71.33432007 C1.90279434 69.9166488 -1.67045253 68.49433056 -5.24023438 67.06298828 C-7.06844727 66.33571533 -7.06844727 66.33571533 -8.93359375 65.59375 C-9.97805664 65.17528809 -11.02251953 64.75682617 -12.09863281 64.32568359 C-18.31525316 62.10884582 -21.63473028 62.57643461 -27.72265625 65.08984375 Z " fill="#0087FE" transform="translate(530.91796875,97.6796875)"/>
<path d="M0 0 C7.57746479 5.91989437 7.57746479 5.91989437 9.125 10.5625 C9.62 11.738125 10.115 12.91375 10.625 14.125 C13.51121424 21.88792106 13.96516828 29.72706088 11.125 37.5625 C7.90124792 44.42814774 2.55330328 50.34766933 -2.875 55.5625 C-4.36 56.0575 -4.36 56.0575 -5.875 56.5625 C-7.08382096 58.56266466 -7.08382096 58.56266466 -7.875 60.5625 C-8.535 60.5625 -9.195 60.5625 -9.875 60.5625 C-10.535 61.8825 -11.195 63.2025 -11.875 64.5625 C-12.535 64.5625 -13.195 64.5625 -13.875 64.5625 C-14.535 65.8825 -15.195 67.2025 -15.875 68.5625 C-16.535 68.5625 -17.195 68.5625 -17.875 68.5625 C-18.143125 69.201875 -18.41125 69.84125 -18.6875 70.5 C-19.875 72.5625 -19.875 72.5625 -22.875 73.5625 C-22.875 74.2225 -22.875 74.8825 -22.875 75.5625 C-25.25 78.1875 -25.25 78.1875 -27.875 80.5625 C-28.535 80.5625 -29.195 80.5625 -29.875 80.5625 C-30.535 81.8825 -31.195 83.2025 -31.875 84.5625 C-32.535 84.5625 -33.195 84.5625 -33.875 84.5625 C-34.535 85.8825 -35.195 87.2025 -35.875 88.5625 C-36.535 88.5625 -37.195 88.5625 -37.875 88.5625 C-38.535 89.8825 -39.195 91.2025 -39.875 92.5625 C-40.535 92.5625 -41.195 92.5625 -41.875 92.5625 C-42.535 93.8825 -43.195 95.2025 -43.875 96.5625 C-44.535 96.5625 -45.195 96.5625 -45.875 96.5625 C-46.535 97.8825 -47.195 99.2025 -47.875 100.5625 C-48.535 100.5625 -49.195 100.5625 -49.875 100.5625 C-50.13849243 101.15065491 -50.40198486 101.73880981 -50.67346191 102.3447876 C-51.92737571 104.65917131 -53.24561576 106.18678115 -55.09960938 108.04589844 C-55.75368774 108.70628113 -56.40776611 109.36666382 -57.08166504 110.04705811 C-58.13952209 111.09884247 -58.13952209 111.09884247 -59.21875 112.171875 C-60.30609436 113.26208954 -60.30609436 113.26208954 -61.41540527 114.37432861 C-62.94619011 115.90647279 -64.47949697 117.43610075 -66.01513672 118.96337891 C-68.3731077 121.31061631 -70.72019546 123.66835778 -73.06640625 126.02734375 C-74.55404636 127.51366282 -76.04230644 128.99936169 -77.53125 130.484375 C-78.23648804 131.1936615 -78.94172607 131.902948 -79.66833496 132.63372803 C-80.64945251 133.6053891 -80.64945251 133.6053891 -81.65039062 134.59667969 C-82.22615845 135.17085632 -82.80192627 135.74503296 -83.3951416 136.33660889 C-84.875 137.5625 -84.875 137.5625 -86.875 137.5625 C-87.205 138.5525 -87.535 139.5425 -87.875 140.5625 C-88.535 140.5625 -89.195 140.5625 -89.875 140.5625 C-90.13023437 141.14225586 -90.38546875 141.72201172 -90.6484375 142.31933594 C-92.00084777 144.79265312 -93.51232524 146.45852109 -95.5 148.453125 C-96.20640625 149.16210938 -96.9128125 149.87109375 -97.640625 150.6015625 C-98.37796875 151.33117187 -99.1153125 152.06078125 -99.875 152.8125 C-100.61234375 153.55757812 -101.3496875 154.30265625 -102.109375 155.0703125 C-102.81578125 155.77414062 -103.5221875 156.47796875 -104.25 157.203125 C-104.89710938 157.84797852 -105.54421875 158.49283203 -106.2109375 159.15722656 C-107.875 160.5625 -107.875 160.5625 -109.875 160.5625 C-110.2429087 161.41671885 -110.2429087 161.41671885 -110.61824989 162.28819466 C-112.09548593 164.96150718 -113.83090801 166.78220912 -115.98300171 168.9513855 C-116.84348114 169.82328522 -117.70396057 170.69518494 -118.59051514 171.59350586 C-119.54639251 172.5518738 -120.50239022 173.51012174 -121.45849609 174.46826172 C-122.46432452 175.48335167 -123.46975697 176.49883413 -124.474823 177.51467896 C-127.20585597 180.27192626 -129.94351236 183.02250122 -132.68323469 185.77111197 C-134.39786609 187.49161413 -136.11132044 189.21328015 -137.82442093 190.93530655 C-143.19336271 196.33159788 -148.56629913 201.72386418 -153.94506967 207.11035907 C-160.13699017 213.31122206 -166.31565615 219.52489632 -172.48295534 225.75024593 C-177.26057831 230.57125636 -182.04981889 235.38052523 -186.8478514 240.18122303 C-189.70821567 243.0436737 -192.56361267 245.91067497 -195.40699387 248.79000473 C-198.0876276 251.50386446 -200.78255216 254.2027096 -203.48854446 256.89127731 C-204.47242522 257.87363093 -205.45131811 258.86101345 -206.42440796 259.85405731 C-214.83786556 268.4296414 -223.80792004 274.85135647 -236.0625 275.8125 C-250.34527322 274.87592471 -259.34094729 266.54545155 -268.96923828 256.85644531 C-270.06349949 255.76625562 -271.15839647 254.67670376 -272.25387573 253.58773804 C-275.21114543 250.64408024 -278.15892399 247.69108965 -281.10462046 244.73585606 C-284.19893828 241.63390787 -287.30060926 238.53932579 -290.40109253 235.44354248 C-295.60629797 230.2437856 -300.80516806 225.03775737 -306.00048828 219.828125 C-311.992236 213.82006115 -317.99470242 207.82286904 -324.00286686 201.83122563 C-329.17550951 196.67223378 -334.3422368 191.50737243 -339.50414073 186.33763576 C-342.58074217 183.25637643 -345.65928882 180.17713403 -348.74319839 177.10318756 C-351.64422165 174.21088379 -354.53770629 171.31123698 -357.42573929 168.4059639 C-358.48168619 167.34607826 -359.54014211 166.28868495 -360.60138702 165.23410416 C-369.99577036 155.89325163 -377.90491573 147.21977212 -378.8984375 133.53125 C-378.82950533 124.79984136 -375.544266 117.12758681 -369.875 110.5625 C-362.60219421 103.681191 -353.88995029 100.34572618 -343.875 100.5625 C-328.86608541 102.58330811 -320.4909985 111.55496217 -310.43554688 121.95361328 C-308.2739937 124.18212321 -306.07563708 126.37265035 -303.875 128.5625 C-299.1875 133.25 -294.5 137.9375 -289.8125 142.625 C-289.31878906 143.11806641 -288.82507813 143.61113281 -288.31640625 144.11914062 C-286.95631418 145.48107564 -285.60293683 146.84970678 -284.25 148.21875 C-282.18386285 150.25770114 -280.08030106 152.17732329 -277.875 154.0625 C-269.19132653 161.61352041 -269.19132653 161.61352041 -267.875 165.5625 C-267.215 165.5625 -266.555 165.5625 -265.875 165.5625 C-263.25 167.9375 -263.25 167.9375 -260.875 170.5625 C-260.875 171.2225 -260.875 171.8825 -260.875 172.5625 C-258.895 173.5525 -258.895 173.5525 -256.875 174.5625 C-256.875 175.2225 -256.875 175.8825 -256.875 176.5625 C-256.215 176.5625 -255.555 176.5625 -254.875 176.5625 C-254.875 177.2225 -254.875 177.8825 -254.875 178.5625 C-254.00875 178.9028125 -254.00875 178.9028125 -253.125 179.25 C-250.29065264 180.9033693 -248.90737811 182.99213944 -246.875 185.5625 C-244.89543058 187.25338222 -242.89554804 188.92080472 -240.875 190.5625 C-239.54166667 191.89583333 -238.20833333 193.22916667 -236.875 194.5625 C-236.215 194.8925 -235.555 195.2225 -234.875 195.5625 C-234.61070017 194.97350634 -234.34640035 194.38451269 -234.07409143 193.77767074 C-232.82892289 191.47737833 -231.53191188 189.96668878 -229.68953705 188.11976814 C-229.02987678 187.45365898 -228.37021651 186.78754982 -227.69056654 186.10125554 C-226.6006166 185.0159514 -226.6006166 185.0159514 -225.48864746 183.90872192 C-224.71811932 183.13366267 -223.94759118 182.35860342 -223.1537137 181.56005752 C-220.56232307 178.95597476 -217.96380264 176.35912598 -215.36523438 173.76220703 C-213.50886514 171.89985541 -211.65290776 170.03709317 -209.79733276 168.1739502 C-205.27341763 163.6334189 -200.74395429 159.09846182 -196.21228153 154.5656742 C-192.52677736 150.87921946 -188.84285759 147.1911889 -185.16004944 143.50204086 C-174.71297526 133.03734939 -164.26171335 122.57686618 -153.80507702 112.12172939 C-153.2413059 111.55803818 -152.67753478 110.99434698 -152.09667969 110.41357422 C-151.53221699 109.84919328 -150.96775429 109.28481234 -150.38618666 108.70332895 C-141.2476897 99.56564411 -132.11919889 90.41803568 -122.99522942 81.26584722 C-113.6213309 71.86318661 -104.23995956 62.46803902 -94.85080576 53.08061111 C-89.58192708 47.81239539 -84.31614822 42.54116631 -79.05839539 37.26184464 C-74.57945123 32.7646445 -70.09357554 28.27450152 -65.59872705 23.79319514 C-63.30788431 21.50886099 -61.02143028 19.22042755 -58.74146652 16.92522812 C-56.2625645 14.43084126 -53.7715509 11.94919199 -51.27722168 9.47024536 C-50.56843416 8.75117071 -49.85964664 8.03209606 -49.1293807 7.29123127 C-35.16588758 -6.4835384 -17.16939444 -11.74356849 0 0 Z " fill="#0087FE" transform="translate(709.875,335.4375)"/>
<path d="M0 0 C3 1 3 1 3 1 Z " fill="#0482F3" transform="translate(680,328)"/>
<path d="M0 0 C3 1 3 1 3 1 Z " fill="#057EEE" transform="translate(821,208)"/>
<path d="" fill="#087FF1" transform="translate(0,0)"/>
<path d="" fill="#0781F3" transform="translate(0,0)"/>
<path d="" fill="#0983F3" transform="translate(0,0)"/>
<path d="" fill="#0C83F1" transform="translate(0,0)"/>
<path d="" fill="#0B81F1" transform="translate(0,0)"/>
<path d="M0 0 C2 1 2 1 2 1 Z " fill="#0684F6" transform="translate(265,184)"/>
<path d="M0 0 C2 1 2 1 2 1 Z " fill="#0482F6" transform="translate(369,144)"/>
<path d="" fill="#373A3C" transform="translate(0,0)"/>
<path d="" fill="#1D3048" transform="translate(0,0)"/>
<path d="" fill="#0D7BE4" transform="translate(0,0)"/>
<path d="" fill="#067EED" transform="translate(0,0)"/>
<path d="" fill="#057FF0" transform="translate(0,0)"/>
<path d="" fill="#0380F3" transform="translate(0,0)"/>
<path d="" fill="#0682F3" transform="translate(0,0)"/>
<path d="" fill="#0580F4" transform="translate(0,0)"/>
<path d="" fill="#0682F5" transform="translate(0,0)"/>
<path d="" fill="#0283F9" transform="translate(0,0)"/>
<path d="" fill="#0781F3" transform="translate(0,0)"/>
<path d="" fill="#077FF1" transform="translate(0,0)"/>
<path d="" fill="#0681F0" transform="translate(0,0)"/>
<path d="" fill="#067EF3" transform="translate(0,0)"/>
<path d="" fill="#0480F1" transform="translate(0,0)"/>
<path d="" fill="#0282F8" transform="translate(0,0)"/>
<path d="" fill="#067FEE" transform="translate(0,0)"/>
<path d="" fill="#0A83F3" transform="translate(0,0)"/>
<path d="" fill="#0A83F0" transform="translate(0,0)"/>
<path d="" fill="#0981F3" transform="translate(0,0)"/>
<path d="" fill="#0981F1" transform="translate(0,0)"/>
<path d="" fill="#0B81F3" transform="translate(0,0)"/>
<path d="" fill="#0D82EF" transform="translate(0,0)"/>
<path d="" fill="#0682F6" transform="translate(0,0)"/>
<path d="" fill="#0D84F0" transform="translate(0,0)"/>
<path d="" fill="#0684F6" transform="translate(0,0)"/>
<path d="" fill="#0B85F2" transform="translate(0,0)"/>
<path d="" fill="#0587F9" transform="translate(0,0)"/>
<path d="" fill="#0685F9" transform="translate(0,0)"/>
<path d="" fill="#0A85F2" transform="translate(0,0)"/>
<path d="" fill="#047EF0" transform="translate(0,0)"/>
<path d="" fill="#0588FB" transform="translate(0,0)"/>
<path d="" fill="#0685F8" transform="translate(0,0)"/>
<path d="" fill="#0E83F0" transform="translate(0,0)"/>
<path d="" fill="#0D83F1" transform="translate(0,0)"/>
<path d="" fill="#0C81EF" transform="translate(0,0)"/>
<path d="" fill="#0284F7" transform="translate(0,0)"/>
<path d="" fill="#0483F5" transform="translate(0,0)"/>
<path d="" fill="#0185FC" transform="translate(0,0)"/>
<path d="" fill="#0782F1" transform="translate(0,0)"/>
<path d="" fill="#0384F9" transform="translate(0,0)"/>
<path d="" fill="#0483F8" transform="translate(0,0)"/>
<path d="" fill="#0382F7" transform="translate(0,0)"/>
<path d="" fill="#0681F1" transform="translate(0,0)"/>
<path d="" fill="#0481F2" transform="translate(0,0)"/>
<path d="" fill="#017EF4" transform="translate(0,0)"/>
<path d="" fill="#067FF4" transform="translate(0,0)"/>
<path d="" fill="#0781F6" transform="translate(0,0)"/>
<path d="" fill="#0483F9" transform="translate(0,0)"/>
<path d="" fill="#0183FB" transform="translate(0,0)"/>
<path d="" fill="#077FF2" transform="translate(0,0)"/>
<path d="" fill="#0582F5" transform="translate(0,0)"/>
<path d="" fill="#0580F3" transform="translate(0,0)"/>
<path d="" fill="#0580F5" transform="translate(0,0)"/>
<path d="" fill="#5C5D5E" transform="translate(0,0)"/>
</svg>
